<svg width="100%" height="100%" id="svg" viewBox="0 0 1440 400" xmlns="http://www.w3.org/2000/svg" class="transition duration-300 ease-in-out delay-150"><defs><linearGradient id="gradient" x1="0%" y1="50%" x2="100%" y2="50%"><stop offset="5%" stop-color="#002bdc66"></stop><stop offset="95%" stop-color="#32ded466"></stop></linearGradient></defs><path d="M 0,400 C 0,400 0,100 0,100 C 82.35714285714286,112.46428571428572 164.71428571428572,124.92857142857143 296,124 C 427.2857142857143,123.07142857142857 607.5000000000001,108.75000000000001 730,105 C 852.4999999999999,101.24999999999999 917.2857142857142,108.07142857142857 1026,109 C 1134.7142857142858,109.92857142857143 1287.357142857143,104.96428571428572 1440,100 C 1440,100 1440,400 1440,400 Z" stroke="none" stroke-width="0" fill="url(#gradient)" class="transition-all duration-300 ease-in-out delay-150 path-0" transform="rotate(-180 720 200)"></path><defs><linearGradient id="gradient" x1="0%" y1="50%" x2="100%" y2="50%"><stop offset="5%" stop-color="#002bdc88"></stop><stop offset="95%" stop-color="#32ded488"></stop></linearGradient></defs><path d="M 0,400 C 0,400 0,200 0,200 C 85.85714285714286,181.39285714285714 171.71428571428572,162.78571428571428 300,171 C 428.2857142857143,179.21428571428572 599.0000000000001,214.25000000000003 738,216 C 876.9999999999999,217.74999999999997 984.2857142857142,186.21428571428572 1096,178 C 1207.7142857142858,169.78571428571428 1323.857142857143,184.89285714285714 1440,200 C 1440,200 1440,400 1440,400 Z" stroke="none" stroke-width="0" fill="url(#gradient)" class="transition-all duration-300 ease-in-out delay-150 path-1" transform="rotate(-180 720 200)"></path><defs><linearGradient id="gradient" x1="0%" y1="50%" x2="100%" y2="50%"><stop offset="5%" stop-color="#002bdcff"></stop><stop offset="95%" stop-color="#32ded4ff"></stop></linearGradient></defs><path d="M 0,400 C 0,400 0,300 0,300 C 123.75,311.8928571428571 247.5,323.7857142857143 360,314 C 472.5,304.2142857142857 573.75,272.75 701,271 C 828.25,269.25 981.5,297.2142857142857 1109,307 C 1236.5,316.7857142857143 1338.25,308.3928571428571 1440,300 C 1440,300 1440,400 1440,400 Z" stroke="none" stroke-width="0" fill="url(#gradient)" class="transition-all duration-300 ease-in-out delay-150 path-2" transform="rotate(-180 720 200)"></path></svg>