<svg width="100%" height="100%" id="svg" viewBox="0 0 1440 400" xmlns="http://www.w3.org/2000/svg" class="transition duration-300 ease-in-out delay-150"><defs><linearGradient id="gradient" x1="10%" y1="21%" x2="90%" y2="79%"><stop offset="5%" stop-color="#002bdc66"></stop><stop offset="95%" stop-color="#32ded466"></stop></linearGradient></defs><path d="M 0,400 C 0,400 0,100 0,100 C 41.31471886647809,85.95869570964075 82.62943773295618,71.9173914192815 130,65 C 177.37056226704382,58.08260858071849 230.7969679346533,58.289130032514734 287,70 C 343.2030320653467,81.71086996748527 402.1826905284306,104.92608845065953 452,108 C 501.8173094715694,111.07391154934047 542.4722699516244,94.00651616484708 588,85 C 633.5277300483756,75.99348383515292 683.9282296650716,75.04784688995214 736,73 C 788.0717703349284,70.95215311004786 841.8148113880886,67.80209627534433 886,78 C 930.1851886119114,88.19790372465567 964.8125247825742,111.7437680086706 1009,125 C 1053.1874752174258,138.2562319913294 1106.9350894816146,141.2228316899733 1158,132 C 1209.0649105183854,122.7771683100267 1257.4471172909673,101.36490523143621 1304,94 C 1350.5528827090327,86.63509476856379 1395.2764413545165,93.3175473842819 1440,100 C 1440,100 1440,400 1440,400 Z" stroke="none" stroke-width="0" fill="url(#gradient)" class="transition-all duration-300 ease-in-out delay-150 path-0" transform="rotate(-180 720 200)"></path><defs><linearGradient id="gradient" x1="10%" y1="21%" x2="90%" y2="79%"><stop offset="5%" stop-color="#002bdc88"></stop><stop offset="95%" stop-color="#32ded488"></stop></linearGradient></defs><path d="M 0,400 C 0,400 0,200 0,200 C 41.951783023606225,203.39634936160087 83.90356604721245,206.79269872320177 132,207 C 180.09643395278755,207.20730127679823 234.33751883475645,204.22555446879377 281,195 C 327.66248116524355,185.77444553120623 366.74635861376186,170.30508340162308 420,172 C 473.25364138623814,173.69491659837692 540.6770467101959,192.55411192471385 591,209 C 641.3229532898041,225.44588807528615 674.5454545454545,239.47846889952154 718,227 C 761.4545454545455,214.52153110047846 815.1411351079859,175.53201247720003 870,166 C 924.8588648920141,156.46798752279997 980.8900050226018,176.39348119167838 1030,184 C 1079.1099949773982,191.60651880832162 1121.2988448016072,186.89406275608658 1165,194 C 1208.7011551983928,201.10593724391342 1253.9146157709692,220.03026778397526 1300,223 C 1346.0853842290308,225.96973221602474 1393.0426921145154,212.98486610801237 1440,200 C 1440,200 1440,400 1440,400 Z" stroke="none" stroke-width="0" fill="url(#gradient)" class="transition-all duration-300 ease-in-out delay-150 path-1" transform="rotate(-180 720 200)"></path><defs><linearGradient id="gradient" x1="10%" y1="21%" x2="90%" y2="79%"><stop offset="5%" stop-color="#002bdcff"></stop><stop offset="95%" stop-color="#32ded4ff"></stop></linearGradient></defs><path d="M 0,400 C 0,400 0,300 0,300 C 56.289843770652155,292.0554733141241 112.57968754130431,284.11094662824814 153,281 C 193.4203124586957,277.88905337175186 217.97109360543493,279.61168680113144 271,292 C 324.02890639456507,304.38831319886856 405.5359380369558,327.44230616722615 457,335 C 508.4640619630442,342.55769383277385 529.8851542467419,334.6190885299638 569,323 C 608.1148457532581,311.3809114700362 664.9234449760766,296.08133971291863 721,284 C 777.0765550239234,271.91866028708137 832.4210658489518,263.0555526183616 877,268 C 921.5789341510482,272.9444473816384 955.392291628116,291.696449813635 1001,292 C 1046.607708371884,292.303550186365 1104.0097676385842,274.1586481270982 1153,283 C 1201.9902323614158,291.8413518729018 1242.5686378175474,327.6689576779719 1289,335 C 1335.4313621824526,342.3310423220281 1387.7156810912263,321.16552116101406 1440,300 C 1440,300 1440,400 1440,400 Z" stroke="none" stroke-width="0" fill="url(#gradient)" class="transition-all duration-300 ease-in-out delay-150 path-2" transform="rotate(-180 720 200)"></path></svg>