<svg xmlns="http://www.w3.org/2000/svg" viewBox="0 0 390 458"><style>.a{fill:#FFF;}</style><path d="M205.3 286.9c0.1 0 0.3 0.1 0.4 0.1 0.1 0 0.1-0.1 0.2-0.1 -0.2 0-0.3-0.1-0.5-0.1C205.4 286.8 205.4 286.8 205.3 286.9L205.3 286.9zM171.4 157c-1-1.2-2.3-2-3.6-2.7 -4-2.1-7.9-4.2-12-6.1 -5.9-2.8-11.8-5.4-17.7-8.1 -9.6-4.3-19.4-8-29.6-10.8 -8.3-2.3-16.3-5.2-24.2-8.7 -11.6-5.1-22.7-11-33.2-18 -3.9-2.6-7.8-5-11.7-7.5 -2-1.3-4.2-2.1-7.1-2.6 0.7 0.5 1.1 0.8 1.5 1 1.6 0.9 3.3 1.8 4.8 2.8 4.4 2.8 8.8 5.7 13.2 8.6 6.2 4.2 12.6 8.2 19.2 11.7 11.3 6 23 10.9 35.3 14.6 3.7 1.1 7.4 2.2 11.1 3.4 6.7 2.2 13.3 4.7 19.7 7.4 6.1 2.6 12.3 5 18.4 7.7 5.1 2.2 10.1 4.7 15.2 7C170.9 156.9 171.1 156.9 171.4 157L171.4 157zM232.8 347.4c1.2-0.7 1.9-1.7 2.7-2.6 1.2-1.4 2.3-2.9 3.6-4.3 3.2-3.6 6.5-7.3 9.8-10.8 3.5-3.8 7.2-7.5 11.3-10.7 3.6-2.8 7.2-5.6 10.8-8.4 5.5-4.3 10.6-9 15.5-14 8.8-9 17.6-17.9 26.4-26.7 3.3-3.3 6.7-6.4 10.3-9.4 8.3-6.9 17.2-12.9 26.1-18.9 1.3-0.9 2.8-1.7 4.2-2.5 0.4-0.2 0.7-0.6 1-0.9 0.2-0.2 0-0.7-0.3-0.7 -0.4 0-0.8 0-1.1 0.2 -1.8 0.9-3.6 1.7-5.3 2.8 -6.7 4.1-13 8.7-19.3 13.3 -4.4 3.2-8.6 6.6-12.5 10.4 -9.7 9.1-18.9 18.7-28.1 28.3 -4.4 4.6-8.7 9.2-13.6 13.3 -2.9 2.4-5.8 4.8-8.8 7.2 -5.6 4.4-11 9-15.8 14.3 -3.1 3.4-6.3 6.8-9.3 10.3 -2.4 2.8-4.8 5.7-7.1 8.6C232.7 346.3 232.3 346.6 232.8 347.4L232.8 347.4zM163.6 123.7c0.3-1 0.1-1.7 0-2.5 -0.9-3.9-2.2-7.6-3.7-11.2 -2.5-6-5-12-7.6-17.9 -1.5-3.5-3-6.9-4.7-10.3 -2.4-4.9-5.4-9.5-8.5-14.1 -3.8-5.5-7.3-11.1-10.6-16.9 -1.6-3-3.3-5.9-5-8.9 -5.2-9.1-11.9-17-20.1-23.4 -1-0.8-2.1-1.6-3-2.5 -3.5-3-7.3-5.5-11.2-7.9 -0.6-0.4-1.2-0.7-1.8-1 -0.3-0.1-0.6-0.2-0.8 0.3 0.4 0.8 1.2 1.2 2 1.8 3.4 2.4 7 4.6 10.1 7.4 2.5 2.3 5.2 4.4 7.7 6.7 4.7 4.5 8.6 9.6 11.9 15.1 2.5 4.2 4.8 8.5 7.1 12.8 3 5.5 6.1 10.9 9.8 16 1.9 2.6 3.6 5.2 5.4 7.8 2.1 3.1 4.1 6.4 5.8 9.8 2.3 4.6 4.5 9.2 6.7 13.7 3.9 7.9 7.1 16.1 10.1 24.4C163.1 123.1 163.3 123.3 163.6 123.7L163.6 123.7zM172.7 132.9c0.1 0 0.1 0 0.2 0.1 0.2-0.3 0.4-0.7 0.5-1 1.1-2 2.1-4 3.3-5.9 3.3-5.4 6.6-10.8 9.6-16.4 0.8-1.6 1.8-3.1 2.7-4.6 3.3-5 6.8-10 10-15.1 5.9-9.1 11.7-18.2 18-27 4.4-6.2 8.8-12.6 13.6-18.5 1.5-1.9 3-3.8 4.5-5.6 4.4-5.4 8.7-10.8 13.3-16.1 3.3-3.9 6.9-7.6 10.3-11.4 0.9-1 1.7-2 2.4-3.1 0.2-0.3 0.1-0.7 0.2-1.1 -1.1 0.1-1.4 0.9-1.9 1.4 -2.4 2.6-4.7 5.3-7.2 7.9 -9.3 9.7-17.7 20-26.5 30.2 -8.5 9.9-15.9 20.6-22.6 31.7 -2.2 3.6-4.3 7.2-6.5 10.7 -3.1 5.2-6.4 10.4-9.4 15.7 -4.1 7.3-8.1 14.6-12 22 -0.9 1.6-1.6 3.4-2.3 5.1C172.8 132.2 172.8 132.5 172.7 132.9L172.7 132.9zM190.1 216.5c-0.6-0.5-0.8-0.9-1.1-1 -1.5-0.6-3-1.2-4.5-1.8 -2-0.7-3.9-1.4-5.9-2.1 -5.8-2.1-11.6-4.2-17.5-6.1 -5.7-1.9-11.5-3.6-17.2-5.5 -8.1-2.6-16.3-4.8-24.7-6.3 -7.4-1.3-14.8-2.4-22.2-3.6 -5-0.8-10.1-1.7-15.1-2.6 -6.3-1.1-12.5-2.7-18.7-4.4 -8.8-2.4-17.6-4.8-26.3-7.5 -7.4-2.4-15-4.4-22.5-6.6 -1.7-0.5-3.4-0.9-5.2-1.3 -0.3-0.1-0.6-0.2-0.7 0.4 0.8 0.8 1.9 1.1 3 1.5 2 0.7 4.1 1.4 6.2 2 4.3 1.4 8.7 2.6 13 4.1 9.6 3.4 19.3 6.1 29 9 13.7 4.1 27.6 6.8 41.7 8.9 6.8 1 13.6 1.9 20.4 2.9 5.6 0.9 11.3 1.9 16.8 3.6 6.7 2 13.3 3.9 20 5.9 6.3 1.9 12.5 4.1 18.6 6.4 3.7 1.4 7.4 2.6 11.1 3.9C188.7 216.4 189.2 216.4 190.1 216.5L190.1 216.5zM341.3 60.5c-0.5 0.2-1 0.4-1.4 0.6 -2.1 1.2-4.1 2.5-6.1 3.7 -8.1 4.8-15.8 10-23.2 15.8 -1.8 1.4-3.6 2.9-5.4 4.3 -5.3 4-10.6 8-16 11.9 -9.4 6.8-18.2 14.4-26.2 22.9 -6.8 7.3-13.8 14.4-20.7 21.6 -2.7 2.8-5.6 5.6-8.3 8.4 -8.7 9-17.4 18-26.1 27 -4.4 4.5-8.6 9.1-12.4 14.1 -0.6 0.9-1.2 1.8-1.7 2.7 -0.1 0.2 0 0.5 0 0.9 1-0.3 1.4-1.1 2-1.7 5.2-6.5 10.6-12.7 16.8-18.3 4-3.5 7.7-7.4 11.5-11.2 3.8-3.8 7.6-7.8 11.4-11.6 10.6-10.5 20.9-21.3 31.1-32.2 6.7-7.2 14-13.6 21.8-19.5 7.2-5.4 14.4-10.7 21.3-16.4 7-5.8 14.6-11 22.2-16 2.5-1.6 5-3.3 7.6-5C340.1 62.3 340.9 61.7 341.3 60.5L341.3 60.5zM25 262.6c0 0.1 0 0.3 0 0.5 1 0.2 1.9 0.4 2.9 0.6 4.2 0.8 8.2 2.3 12.3 3.5 11 3.1 22 6.2 33.1 9.2 6.1 1.6 12.3 2.9 18.6 3.7 9 1.1 18 1.5 27.1 1.2 1.5 0 2.9-0.1 4.4 0 8 0.2 15.9 0.5 23.9 0.8 1.9 0.1 3.7 0.1 5.6 0.3 4.8 0.4 9.6 0.8 14.3 1.1 6.4 0.5 12.8 0.6 19.2 1.4 4.4 0.6 8.9 0.9 13.4 1.4 1.4 0.2 2.8 0.4 4.1 0.6 0.2 0 0.5-0.1 0.8-0.1 -0.1-0.7-0.6-0.7-0.9-0.8 -1.4-0.4-2.8-0.8-4.3-1.1 -3.9-0.6-7.8-1.2-11.7-1.8 -3.8-0.5-7.5-1-11.3-1.4 -4.2-0.4-8.3-0.6-12.5-1.1 -8.5-1-16.9-1.5-25.4-1.8 -7.1-0.3-14.2-0.6-21.3-0.4 -6.3 0.2-12.7 0-19-0.4 -7.4-0.5-14.6-1.5-21.8-3.2 -6.2-1.5-12.4-3.2-18.6-4.8 -7.2-1.9-14.4-3.5-21.5-5.6 -2.5-0.7-5.1-1.2-7.7-1.7C27.4 262.5 26.1 262.4 25 262.6L25 262.6zM380.4 142.5c-1.1-0.4-2 0-2.9 0.4 -4.1 2-8.2 4.1-12 6.6 -11 7.4-21.9 15.1-32.8 22.8 -8.5 6-17.1 11.7-26.2 16.7 -8.9 4.9-17.9 9.8-26.9 14.6 -14.4 7.6-28.6 15.8-42.6 24.1 -3.4 2-6.7 4.2-9.8 6.7 -4.8 3.8-9.3 7.9-13.9 11.9 -1 0.9-1.9 1.8-2.8 2.8 -0.2 0.3-0.2 0.5 0.2 0.8 0.7-0.2 1.3-0.7 1.8-1.3 1.1-1 2.2-2 3.3-3 2.3-1.9 4.7-3.8 7-5.8 4.6-3.9 9.5-7.5 14.8-10.4 9.2-5.1 18.4-10.2 27.6-15.2 12.6-6.9 25.2-13.6 37.7-20.5 9.1-5 18-10.2 26.5-16.2 11.7-8.3 23.3-16.6 34.9-25 3.5-2.5 7.1-5 10.9-7.1C377 144.5 378.7 143.5 380.4 142.5L380.4 142.5zM19.8 331.8c0 0.2 0 0.3-0.1 0.5 0.4 0.1 0.8 0.3 1.2 0.4 2.9 0.3 5.8 0.6 8.8 0.8 5.8 0.6 11.5 1.3 17.2 2.6 7.4 1.7 14.7 3.5 22.1 5.3 8.3 2.1 16.6 4.1 24.9 6.4 12.2 3.3 24.2 7.1 36.2 10.9 10.1 3.2 20.4 5.8 30.4 9.2 5.3 1.8 10.7 3.1 15.9 5.2 8.6 3.4 17.2 6.9 25.8 10.3 4.7 1.9 9.3 3.8 14 5.7 2.4 0.9 4.8 1.8 7.1 2.8 2 0.8 4 1.5 6.1 2.3 0.3 0.1 0.6 0.1 0.7-0.4 -0.4-0.7-1.2-0.9-1.9-1.2 -4.8-2-9.7-4-14.5-6.1 -9.2-4-18.4-8-27.7-12 -4.3-1.8-8.4-3.9-12.8-5.4 -7.9-2.8-16-5.4-24-7.8 -9.5-2.9-19.1-5.7-28.6-8.7 -10.7-3.4-21.4-6.6-32.3-9.3 -10.1-2.5-20.3-4.8-30.5-7.1 -6-1.4-12.1-2.7-18.2-3.4 -4.1-0.5-8.3-0.9-12.5-1.2C24.6 331.5 22.2 331.6 19.8 331.8L19.8 331.8zM193.6 212.3c-0.3-1-0.5-1.9-0.9-2.9 -3.9-10.1-7.4-20.3-10.1-30.8 -1.1-4.3-2.2-8.7-3.9-12.9 -0.3-0.7-0.6-1.4-0.9-2.2 -0.6 0.1-1 0.1-1.5 0.3 -3.7 1.2-7.5 1.9-11.4 2.2 -5.1 0.3-10.2 0.7-15.3 1 -1.6 0.1-3.2 0-4.9 0 -4.2-0.1-8.4-0.2-12.5-0.5 -4.5-0.4-9.1-1-13.6-1.6 -3.1-0.4-6.3-0.9-9.4-1.5 -4.7-1-9.3-2.2-14-3.4 -5.8-1.5-11.6-2.9-17.2-4.7 -14.7-4.6-27.4-12.5-38.3-23.2 -6.2-6.1-10.5-13.3-12.7-21.8 -1.3-5-1.4-10-0.6-15 0.3-1.8 1.1-3.5 1.7-5.3 0.6-1.6 1.8-2.5 3.4-2.9 2.4-0.7 4.9-0.7 7.4-0.3 4.1 0.5 8.2 1.5 12.1 2.9 2.9 1 5.9 1.9 8.8 2.9 5.2 1.8 10.6 2.9 15.9 4 2.7 0.6 5.4 1.3 8 2.3 5.8 2.3 11.6 4.7 17.5 6.8 8.8 3.2 17.3 7.2 25.6 11.5 4.2 2.3 8.2 5 12 7.9 6.8 5.1 13.6 10.2 20.4 15.3 4 3 8 6 12.1 9 0.5-0.2 0.2-0.6 0.1-0.9 -0.2-0.7-0.6-1.4-0.8-2.2 -2.1-5.6-4.2-11.3-6.4-16.9 -0.2-0.4-0.3-0.9-0.5-1.3 -1.1-0.4-2.1-0.9-3.2-1.3 -6.7-2.3-13-5.4-18.9-9.2 -2.1-1.3-4.1-2.8-6-4.3 -2.9-2.3-5.7-4.7-8.5-7.2 -4-3.5-7.4-7.5-10.7-11.6 -5.7-7.1-10.4-14.8-15-22.6 -2-3.3-3.7-6.8-5.2-10.3 -2.6-6.1-5.4-12.2-8-18.3 -2.7-6.4-4.6-13-5.9-19.7 -0.8-4-0.9-8-0.7-12 0.2-3.9 2.7-6.7 6.6-7.6 1.9-0.4 3.9-0.4 5.7 0.4 1.2 0.5 2.4 1.1 3.5 1.8 4.5 2.9 9.1 5.8 13.3 9.3 2.9 2.4 5.7 5 8.6 7.5 1.9 1.7 3.8 3.4 5.7 5.1 6.3 5.3 11.6 11.6 16.4 18.3 1.8 2.5 3.7 5 5.4 7.5 2.3 3.4 4.4 6.9 6.5 10.4 1.3 2.3 2.5 4.6 3.6 7 0.9 1.9 1.7 3.8 2.4 5.8 2.2 6.5 4.2 13.1 5.5 19.9 1.5 7.4 2.7 14.9 2.5 22.5 -0.1 2.1-0.3 4.2-0.5 6.2 0 0.6 0 1.3 0.2 1.8 0.8 1.9 1.7 3.8 2.6 5.9 0.2-0.3 0.4-0.4 0.5-0.6 0.7-4.4 1.4-8.9 2.1-13.3 0.5-3.4 1.1-6.9 1.7-10.3 1.2-6.9 3.4-13.5 5.7-20 1.4-3.9 3.4-7.6 5.6-11.2 3.5-5.5 6.3-11.4 9-17.3 2.2-4.8 4.3-9.6 6.7-14.3 2.3-4.6 5.5-8.6 8.8-12.5 4.4-5 9-9.8 14-14.2 5.4-4.7 11.1-8.9 17.8-11.6 2.7-1.1 5.4-2.2 8.2-3.3 2.4-0.9 4.9-1.3 7.5-1.4 2.3-0.1 4.5 0.3 6.6 1.2 4 1.6 6 5.1 5.5 9.4 -0.5 3.6-1.6 7.1-3.1 10.4 -0.8 1.7-1.7 3.5-2.6 5.2 -4.3 7.5-7.9 15.4-11.6 23.3 -3.3 6.9-7 13.6-10.7 20.3 -4.1 7.2-9 13.9-15.1 19.6 -2.7 2.5-5.3 5-7.9 7.5 -2.2 2.1-4.5 4.2-6.7 6.5 -4.5 4.6-9.2 8.9-14 13.2 -2.8 2.5-5.8 4.9-8.7 7.3 -3.1 2.5-6.5 4.4-9.9 6.4 -1.5 0.9-3.1 1.8-4.6 2.7 -0.8 0.5-1.5 1-2.4 1.6 6.6 17.3 13.1 34.5 19.6 51.7 0.6 0.1 0.7-0.4 0.8-0.7 1.2-2.9 2.3-5.8 3.5-8.6 0.7-1.6 1.4-3.1 2.2-4.6 4.1-7.1 8.3-14.1 12.5-21.2 3.3-5.5 7.2-10.4 11.1-15.4 5-6.3 10-12.6 14.4-19.3 3.7-5.6 7.9-10.9 12.8-15.6 4.3-4.1 8.8-8 13.3-11.9 1.4-1.3 2.9-2.6 4.4-3.8 3.8-3.1 7.9-5.8 12-8.3 5.7-3.4 11.3-6.9 16.9-10.6 3.9-2.5 8.2-4.3 12.5-6.2 2.9-1.2 5.9-2.3 8.9-3.4 1.9-0.8 3.9-1.5 5.8-2.3 2.6-1.2 5.2-1.9 8-2.4 3.6-0.6 7.1-0.2 10.4 1.5 1.8 0.9 3.1 2.3 4.1 4 1.4 2.3 2.3 4.7 2.5 7.4 0.3 4.1-0.1 8-1.7 11.8 -1.2 3-2.5 6-4.2 8.8 -3 5.1-6.3 9.9-9.9 14.6 -6.8 8.8-14.2 17.1-22.1 25 -4.7 4.8-9.4 9.6-14.1 14.5 -1.8 1.8-3.4 3.8-5.1 5.7 -2.5 2.8-5.3 5.2-8.2 7.5 -4.7 3.7-9.7 6.9-14.9 9.8 -5.7 3.1-11.3 6.4-16.9 9.7 -4.9 3-9.6 6.2-14.5 9.2 -5.7 3.6-11.7 6.7-18 9.1 -4.5 1.8-9.2 2.8-13.9 3.6 -3 0.5-6 0.8-9 0.6 -0.2 0-0.4 0.1-0.6 0.2 0 0.2-0.1 0.4-0.1 0.5 4.5 15.8 9.1 31.6 13.6 47.5 0 0.1 0.2 0.2 0.3 0.3 0.5 0 0.4-0.5 0.6-0.8 0.2-0.3 0.2-0.6 0.3-0.9 1.1-3.4 2.6-6.6 4.6-9.6 1.2-1.8 2.4-3.6 3.8-5.2 3.1-3.6 6.4-6.9 10.2-9.7 2.2-1.6 4.1-3.5 6.2-5.2 2.3-1.9 4.5-3.8 6.9-5.4 3.3-2.3 6.5-4.7 9.7-7.2 2.6-2.1 5.3-4 8-6 3.3-2.5 6.6-4.9 9.8-7.4 2-1.5 4-3.2 6.1-4.6 5.9-3.9 11.4-8.2 17-12.5 2.3-1.8 4.7-3.6 7-5.3 7.2-5.3 14.9-9.6 22.9-13.7 9.6-4.9 19.6-8.8 29.5-12.9 2.5-1 5-2.1 7.5-3 2.1-0.8 4.2-1.5 6.4-1.9 6.7-1.4 12.7 0.4 18 4.6 2.4 1.9 3.9 4.5 4.6 7.6 0.5 2.1 0.1 4.2-0.5 6.2 -1 3.5-2.5 6.6-4.5 9.6 -2.3 3.6-4.9 7-7.8 10.1 -5.4 5.8-10.7 11.8-15.7 18 -2.8 3.6-6 6.9-9.3 10.1 -4.5 4.4-9.1 8.6-13.9 12.6 -7.8 6.3-16.5 10.9-25.9 14.3 -11.3 4.1-22.8 7.5-34.3 10.6 -6.3 1.7-12.6 3.6-18.9 5.4 -5.4 1.6-10.9 3.1-16.4 4.1 -4.8 0.9-9.6 1.7-14.4 2.5 -3.1 0.5-6.2 1.1-9.4 1.6 -1.8 0.3-3.7 0.4-5.5 0.7 -0.4 0-0.7 0.1-1.3 0.2 0.2 0.8 0.3 1.6 0.4 2.3 1.7 7.6 3.5 15.2 5.2 22.8 1 4.8 1.8 9.6 2.8 14.3 1.7 8.2 3.6 16.3 5.2 24.5 1.7 8.6 3.9 17 6.1 25.5 0.2 0.7 0.4 1.4 0.8 2.4 0.3-0.5 0.5-0.8 0.6-1 2-5.6 4-11.2 6.1-16.8 3-7.8 7.5-14.7 13-21 2.3-2.6 4.7-5.2 7.1-7.7 8.6-8.9 17.4-17.7 26.7-25.8 3.5-3 7.2-5.6 10.9-8.3 1.2-0.9 2.5-1.9 3.8-2.7 6.9-4.5 13.2-9.8 19.4-15.1 5.8-5 12.2-9.2 19.4-12.1 3.2-1.2 6.4-2.4 9.8-2.6 5.6-0.4 10.6 1 14.5 5.2 5.1 5.5 7.2 12.1 6.5 19.6 -0.6 6.7-3.2 12.7-6.8 18.3 -5.2 8.2-11.6 15.2-19.4 21 -5.5 4.1-11 8.2-16.5 12.4 -2.2 1.7-4.4 3.4-6.6 5.1 -5.8 4.5-12.2 8.2-18.9 11.3 -9.5 4.4-19.1 8.3-28.7 12.5 -4.8 2.1-9.6 4.3-14.4 6.4 -4.7 2.1-9.6 3.8-14.7 4.9 -2.7 0.6-5.4 0.3-8.1 0.4 -0.8 0-1.5 0-2.5 0 0.1 0.5 0.1 1 0.2 1.4 1.7 7.1 3.3 14.3 4.6 21.5 1.4 7.9 2.7 15.9 3.6 23.8 1 8.8 2.1 17.5 3.5 26.2 0.6 3.6 0.9 7.2 1.4 10.8 0.7 5.4 1.5 10.7 2.2 16.1 0.1 0.6 0.1 1.2 0.1 1.8 0 0.3 0 0.6-0.1 0.9 -0.3 1.5-1.3 2.5-2.5 2.6 -1.1 0.1-2.3-0.6-2.8-2 -0.4-1.1-0.7-2.2-0.9-3.4 -0.5-3.4-0.9-6.9-1.4-10.3 -0.6-4.2-1.2-8.4-1.7-12.6 -0.6-4.6-1.1-9.2-1.6-13.8 -0.5-4.5-1-9.1-1.5-13.6 0-0.2-0.1-0.4-0.3-0.8 -0.4 0.1-0.9 0.1-1.3 0.3 -3.8 1.3-7.5 2.8-11.4 4 -8.3 2.6-16.6 5.3-25.2 7 -4.5 0.9-9 1.5-13.6 1.6 -5.5 0.1-11-0.2-16.4-0.8 -4.5-0.5-8.9-0.9-13.4-1.4 -4.7-0.6-9.3-1.3-14-2 -6.1-1-12.2-2-18.3-3.2 -17.4-3.5-34.2-8.9-49.9-17.5 -7.3-4-14.5-8.2-21.7-12.6 -5.7-3.5-11.3-7.4-16.6-11.5 -5.8-4.5-10.9-9.6-14.8-15.9 -1.7-2.6-3-5.4-3.7-8.5 -0.2-0.7-0.3-1.5-0.4-2.3 -0.4-4 1.2-6.9 4.5-9 3.5-2.2 7.3-3.4 11.3-4 5.4-0.9 10.9-1.5 16.4-1.6 3.6 0 7.1-0.2 10.7 0 4.7 0.3 9.4 1.1 14 1.8 6 0.8 11.8 2.4 17.7 3.7 5.8 1.3 11.6 2.5 17.4 3.8 4.6 1 9.3 1.7 13.9 2.8 7.9 1.8 15.6 4.4 23.2 7.2 12.8 4.7 25.5 9.5 38 14.8 4 1.7 7.9 3.6 11.7 5.5 8.8 4.4 17.4 9 25.9 14 3.1 1.8 6 3.8 8.8 6 1.7 1.3 3.4 2.7 5.2 4.1 0.1-0.3 0.2-0.5 0.2-0.7 -1.4-9.3-2.8-18.7-4.9-27.8 -1.6-6.7-3.3-13.4-4.9-20 -1.8-7.4-3.1-14.8-4.5-22.3 -1.1-5.9-2.1-11.9-3.2-17.8 -0.1-0.4-0.2-0.9-0.4-1.3 -0.3 0.1-0.6 0-0.8 0.1 -4.4 2.5-8.7 5.1-13.1 7.4 -4.3 2.3-8.9 4-13.6 5.1 -10.2 2.4-20.4 4.4-30.7 5.8 -1.8 0.3-3.5 0.4-5.3 0.5 -7.7 0.4-15.5 0.7-23.2 1.1 -6.8 0.4-13.6 0.4-20.4 0.2 -8.1-0.2-16-1-23.9-3.1 -3.8-1-7.5-2.4-11.2-3.7 -7.9-2.8-15.8-5.5-23.6-8.3 -3.6-1.3-7.3-2.7-10.8-4.3 -5-2.3-9.7-5.2-13.9-8.8 -3.7-3.2-6.3-7.2-7.6-12 -1.6-6.3-0.1-11.9 3.6-17.1 1.2-1.6 2.7-2.7 4.6-3.5 2.5-1.1 5.1-1.7 7.8-2.2 4.1-0.8 8.3-1.1 12.5-1.3 5.2-0.2 10.4-0.2 15.5-0.3 4.1 0 8.2 0 12.3 0.1 4.6 0.2 9.1 0.6 13.7 0.8 2 0.1 4 0.2 6 0.1 7.6-0.1 15.2 0.2 22.7 0.6 6.6 0.4 13.1 1 19.6 1.6 12.6 1.2 24.9 3.9 37 7.5 6.3 1.8 12.2 4.5 17.7 8.1 5.3 3.4 10.7 6.8 16.1 10.2 2 1.3 4.1 2.4 6.1 3.6 0.2-0.1 0.3-0.2 0.3-0.2 0-0.1 0.1-0.1 0.1-0.2 -4-19.5-9-38.8-14.5-58 -0.1-0.4-0.4-0.8-0.6-1.3 -0.6 0.3-1.2 0.6-1.7 0.8 -2 0.9-3.9 1.9-5.9 2.6 -6.7 2.5-13.6 4-20.7 5.2 -4.4 0.8-8.8 1.5-13.3 2.2 -5.9 0.9-11.8 1.2-17.8 0.8 -8.2-0.7-16.4-0.9-24.6-1.1 -3.4-0.1-6.8-0.4-10.2-0.6 -3-0.2-6-0.5-9-0.7 -8-0.5-16-1.3-23.9-2.9 -9.1-1.8-18.1-4.2-26.4-8.4 -13.2-6.6-24.1-15.9-32.2-28.3 -3.1-4.7-5.7-9.8-7.3-15.2 -0.4-1.4-0.8-2.8-1-4.3 -0.4-2.4 0.1-4.8 1.2-7 0.8-1.7 2.2-2.8 4.1-3.1 1.2-0.2 2.4-0.4 3.7-0.5 7.7-0.2 15.3-0.3 23 0.5 6.9 0.7 13.7 2 20.5 3.9 14 3.9 27.8 8.4 41.3 13.8 4.8 1.9 9.8 3.2 14.9 4.5 6.2 1.6 12.5 2.8 18.8 4.2 6.3 1.3 12.5 3.1 18.5 5.2 2.4 0.9 4.8 1.6 7.3 2.3 7.5 2.1 14.8 4.3 21.9 7.5 4.6 2.1 9 4.5 13.3 7.1 0.5 0.3 1.1 0.6 1.6 0.8 0.2 0 0.3 0.1 0.5 0.1C193.8 212.5 193.7 212.4 193.6 212.3L193.6 212.3z" fill="#80AFBB"/><path d="M20.5 331.1c2.4-0.2 4.8-0.3 7.1-0.1 4.2 0.3 8.3 0.7 12.4 1.2 6.1 0.7 12.2 2 18.2 3.4 10.1 2.3 20.3 4.6 30.4 7.1 10.9 2.7 21.6 5.8 32.2 9.2 9.5 3 19 5.8 28.6 8.7 8 2.4 16 5 24 7.8 4.4 1.5 8.5 3.6 12.8 5.4 9.2 4 18.4 8 27.6 11.9 4.8 2.1 9.7 4 14.5 6.1 0.7 0.3 1.5 0.4 1.9 1.2 -0.1 0.5-0.4 0.4-0.7 0.4 -2-0.7-4-1.5-6.1-2.3 -2.4-0.9-4.8-1.8-7.1-2.8 -4.7-1.9-9.3-3.8-13.9-5.6 -8.6-3.4-17.2-6.9-25.8-10.3 -5.2-2.1-10.6-3.4-15.8-5.2 -10-3.4-20.3-6-30.3-9.2 -12-3.8-24-7.6-36.1-10.9 -8.3-2.3-16.6-4.3-24.9-6.4 -7.3-1.8-14.7-3.6-22-5.3 -5.6-1.3-11.4-2.1-17.1-2.6 -2.9-0.3-5.8-0.5-8.8-0.8 -0.4 0-0.8-0.2-1.2-0.4C20.5 331.4 20.5 331.3 20.5 331.1L20.5 331.1z" class="a"/><path d="M380.4 142.2c-1.7 1-3.4 2.1-5.2 3 -3.8 2.1-7.4 4.5-10.9 7.1 -11.6 8.3-23.2 16.7-34.9 24.9 -8.5 6-17.3 11.3-26.4 16.2 -12.5 6.8-25.1 13.6-37.6 20.4 -9.2 5-18.4 10.1-27.6 15.2 -5.3 2.9-10.1 6.5-14.8 10.4 -2.3 1.9-4.7 3.8-7 5.8 -1.1 0.9-2.2 2-3.3 2.9 -0.6 0.5-1.1 1.1-1.8 1.3 -0.4-0.3-0.4-0.6-0.2-0.8 0.9-0.9 1.8-1.9 2.8-2.8 4.6-4 9.1-8.1 13.9-11.9 3.1-2.5 6.4-4.7 9.7-6.7 14-8.3 28.1-16.4 42.5-24.1 9-4.8 18-9.6 26.9-14.5 9.1-5 17.7-10.7 26.2-16.6 10.8-7.7 21.7-15.3 32.7-22.7 3.8-2.6 7.8-4.7 11.9-6.6C378.4 142.2 379.4 141.8 380.4 142.2L380.4 142.2z" class="a"/><path d="M25.7 262.1c1.2-0.2 2.4-0.1 3.6 0.1 2.6 0.5 5.2 0.9 7.7 1.7 7.1 2.1 14.3 3.7 21.5 5.6 6.2 1.6 12.4 3.2 18.6 4.7 7.1 1.7 14.4 2.8 21.7 3.2 6.3 0.4 12.6 0.5 19 0.4 7.1-0.2 14.2 0.1 21.3 0.4 8.5 0.3 17 0.8 25.4 1.8 4.1 0.5 8.3 0.7 12.4 1.1 3.8 0.4 7.5 0.9 11.3 1.4 3.9 0.5 7.8 1.1 11.7 1.8 1.4 0.2 2.9 0.7 4.3 1.1 0.3 0.1 0.8 0.1 0.9 0.8 -0.3 0-0.5 0.1-0.8 0.1 -1.4-0.2-2.7-0.4-4.1-0.6 -4.4-0.5-8.9-0.9-13.3-1.4 -6.4-0.8-12.8-0.9-19.2-1.4 -4.8-0.4-9.5-0.8-14.3-1.1 -1.8-0.1-3.7-0.2-5.5-0.3 -7.9-0.3-15.9-0.5-23.8-0.8 -1.5 0-2.9 0-4.4 0 -9 0.3-18.1-0.1-27-1.2 -6.3-0.8-12.5-2.1-18.6-3.7 -11-3-22-6-33-9.1 -4.1-1.1-8.1-2.6-12.2-3.4 -1-0.2-1.9-0.4-2.9-0.6C25.7 262.4 25.7 262.2 25.7 262.1L25.7 262.1z" class="a"/><path d="M341.4 60.4c-0.4 1.2-1.2 1.8-2 2.3 -2.5 1.7-5 3.3-7.5 5 -7.7 4.9-15.2 10.1-22.2 15.9 -6.9 5.7-14.2 11-21.3 16.4 -7.8 5.9-15.1 12.3-21.7 19.4 -10.1 10.9-20.4 21.7-31 32.2 -3.8 3.8-7.6 7.7-11.4 11.5 -3.8 3.8-7.5 7.6-11.5 11.1 -6.2 5.5-11.6 11.8-16.7 18.2 -0.5 0.6-0.9 1.4-1.9 1.7 0-0.4-0.1-0.7 0-0.9 0.5-0.9 1.1-1.9 1.7-2.7 3.8-5 8-9.6 12.4-14.1 8.7-9 17.4-18 26.1-27 2.7-2.8 5.6-5.6 8.3-8.4 6.9-7.2 13.9-14.3 20.7-21.5 7.9-8.5 16.7-16 26.1-22.8 5.4-3.9 10.7-7.9 16-11.9 1.9-1.4 3.6-2.9 5.4-4.3 7.4-5.8 15.1-11 23.1-15.8 2.1-1.2 4.1-2.5 6.1-3.7C340.4 60.7 340.9 60.6 341.4 60.4L341.4 60.4z" class="a"/><path d="M190.4 216.1c-0.9-0.1-1.4-0.1-1.8-0.2 -3.7-1.3-7.4-2.6-11.1-3.9 -6.2-2.2-12.3-4.5-18.6-6.4 -6.7-2-13.3-3.9-20-5.9 -5.5-1.6-11.1-2.7-16.7-3.6 -6.8-1.1-13.6-1.9-20.4-2.9 -14-2.1-28-4.8-41.6-8.9 -9.7-2.9-19.4-5.7-28.9-9 -4.3-1.5-8.7-2.7-13-4.1 -2.1-0.7-4.1-1.3-6.2-2 -1.1-0.4-2.2-0.7-3-1.5 0.1-0.6 0.5-0.4 0.7-0.4 1.7 0.4 3.4 0.8 5.2 1.3 7.5 2.1 15 4.2 22.4 6.5 8.7 2.7 17.5 5.1 26.2 7.5 6.2 1.7 12.4 3.3 18.7 4.4 5 0.9 10 1.7 15.1 2.6 7.4 1.2 14.8 2.3 22.2 3.6 8.4 1.5 16.6 3.7 24.6 6.3 5.7 1.9 11.5 3.5 17.2 5.4 5.9 2 11.6 4.1 17.5 6.1 2 0.7 3.9 1.4 5.9 2.1 1.5 0.6 3 1.2 4.5 1.8C189.6 215.2 189.8 215.6 190.4 216.1L190.4 216.1z" class="a"/><path d="M173.1 132.6c0.1-0.3 0-0.7 0.2-1 0.7-1.7 1.4-3.4 2.3-5 4-7.3 7.9-14.7 12-21.9 3-5.3 6.2-10.5 9.4-15.7 2.1-3.6 4.3-7.1 6.5-10.7 6.7-11.1 14.1-21.8 22.6-31.6 8.7-10.1 17.2-20.5 26.4-30.1 2.5-2.6 4.8-5.3 7.2-7.9 0.5-0.5 0.9-1.3 1.9-1.4 -0.1 0.4 0 0.8-0.2 1.1 -0.8 1.1-1.6 2.1-2.4 3.1 -3.4 3.8-6.9 7.5-10.2 11.3 -4.5 5.3-8.8 10.7-13.2 16.1 -1.5 1.9-3 3.8-4.5 5.6 -4.8 5.9-9.2 12.2-13.6 18.5 -6.2 8.8-12.1 17.9-18 27 -3.3 5.1-6.7 10-10 15 -1 1.5-1.9 3-2.7 4.6 -3 5.6-6.3 11-9.6 16.4 -1.2 1.9-2.2 3.9-3.2 5.9 -0.2 0.3-0.4 0.7-0.5 1C173.3 132.7 173.2 132.7 173.1 132.6L173.1 132.6z" class="a"/><path d="M164 123.5c-0.3-0.4-0.5-0.6-0.6-0.9 -3-8.3-6.2-16.5-10.1-24.4 -2.2-4.6-4.4-9.2-6.7-13.7 -1.7-3.4-3.6-6.6-5.8-9.8 -1.8-2.6-3.5-5.2-5.4-7.8 -3.7-5.1-6.8-10.5-9.7-16 -2.3-4.3-4.6-8.6-7.1-12.7 -3.3-5.5-7.2-10.6-11.9-15.1 -2.5-2.3-5.2-4.4-7.7-6.7 -3.1-2.8-6.7-5-10.1-7.4 -0.7-0.5-1.6-0.9-2-1.8 0.2-0.5 0.5-0.4 0.8-0.3 0.6 0.3 1.3 0.6 1.8 1 3.9 2.4 7.7 4.9 11.1 7.9 1 0.9 2 1.7 3 2.5 8.3 6.4 14.9 14.3 20.1 23.4 1.7 2.9 3.4 5.9 5 8.9 3.2 5.8 6.8 11.4 10.5 16.9 3.1 4.5 6.1 9.1 8.5 14 1.7 3.4 3.2 6.9 4.7 10.3 2.6 6 5.1 11.9 7.6 17.9 1.5 3.6 2.8 7.4 3.7 11.2C164.2 121.8 164.4 122.5 164 123.5L164 123.5z" class="a"/><path d="M233.1 346.8c-0.5-0.8 0-1.1 0.2-1.5 2.4-2.9 4.7-5.8 7.1-8.5 3.1-3.5 6.2-6.9 9.3-10.3 4.8-5.3 10.2-9.9 15.8-14.3 3-2.3 5.9-4.7 8.8-7.2 4.9-4 9.2-8.7 13.6-13.3 9.2-9.6 18.4-19.1 28.1-28.2 3.9-3.7 8.1-7.1 12.5-10.3 6.3-4.6 12.6-9.2 19.3-13.3 1.7-1 3.5-1.9 5.3-2.8 0.3-0.2 0.7-0.1 1.1-0.2 0.3 0 0.5 0.5 0.3 0.7 -0.3 0.3-0.6 0.7-1 0.9 -1.4 0.9-2.8 1.6-4.1 2.5 -8.9 6-17.8 12-26.1 18.9 -3.5 3-7 6.1-10.2 9.4 -8.9 8.8-17.6 17.7-26.4 26.7 -4.9 5-9.9 9.7-15.4 14 -3.6 2.8-7.2 5.6-10.8 8.4 -4.1 3.2-7.7 6.9-11.3 10.6 -3.3 3.5-6.5 7.2-9.8 10.8 -1.2 1.4-2.4 2.8-3.6 4.3C235 345.1 234.2 346.1 233.1 346.8L233.1 346.8z" class="a"/><path d="M171.8 156.7c-0.3-0.1-0.6-0.2-0.8-0.3 -5-2.3-10-4.8-15.1-7 -6.1-2.6-12.3-5.1-18.4-7.6 -6.5-2.7-13-5.2-19.7-7.4 -3.7-1.2-7.4-2.3-11.1-3.4 -12.3-3.6-24-8.5-35.2-14.5 -6.6-3.5-12.9-7.5-19.2-11.7 -4.4-2.9-8.8-5.8-13.2-8.6 -1.6-1-3.2-1.8-4.8-2.7 -0.4-0.2-0.7-0.5-1.5-1 2.8 0.5 5 1.3 7.1 2.6 3.9 2.5 7.9 4.9 11.7 7.5 10.5 6.9 21.6 12.9 33.1 17.9 7.8 3.4 15.9 6.3 24.2 8.6 10.1 2.8 19.9 6.5 29.5 10.8 5.9 2.6 11.8 5.3 17.7 8 4 1.9 8 4 12 6.1C169.5 154.7 170.8 155.5 171.8 156.7L171.8 156.7z" class="a"/><path d="M205.7 286.3c0 0 0-0.1 0.1-0.1 0.2 0 0.3 0.1 0.5 0.1 -0.1 0-0.1 0.1-0.2 0.1C205.9 286.4 205.8 286.4 205.7 286.3L205.7 286.3z" class="a"/><path d="M194 211.8c0.1 0.1 0.2 0.2 0.2 0.3 -0.2 0-0.3-0.1-0.5-0.1C193.9 212 193.9 211.9 194 211.8L194 211.8z" class="a"/></svg>